<?xml version="1.0" encoding="UTF-8" standalone="no"?>
<svg
   width="2048"
   height="682"
   viewBox="0 0 2048 682"
   role="img"
   aria-label="VIVA Web Design &amp; Local SEO logo"
   version="1.1"
   id="svg5"
   xmlns="http://www.w3.org/2000/svg"
   xmlns:svg="http://www.w3.org/2000/svg">
  <defs
     id="defs5" />
  <path
     id="rect1"
     style="fill:#ffffff"
     d="M 0,0 H 2048 V 682 H 0 Z" />
  <path
     id="polygon1"
     style="fill:#061a3d"
     d="m 429,152 h 80 l 93,223 95,-222 72,-1 -131,300 -78,-1 z" />
  <path
     id="polygon2"
     style="fill:#0b4bff"
     d="m 834,153 h 72 v 302 h -72 z" />
  <path
     id="polygon3"
     style="fill:#061a3d"
     d="m 975,152 76,1 91,221 93,-221 h 74 l -130,299 -77,-1 z" />
  <path
     id="polygon4"
     style="fill:#061a3d"
     d="m 1443,152 h 73 l 126,300 -74,-1 -91,-213 -91,214 h -71 z" />
  <path
     id="polygon5"
     style="fill:#0b4bff"
     d="m 1476,363 45,91 h -93 z" />
  <path
     d="m 603.72795,509.872 -9.464,37.128 h -8.944 l -5.044,-19.5 q -0.156,-0.572 -0.416,-1.716 -0.208,-1.144 -0.52,-2.496 -0.26,-1.352 -0.468,-2.548 -0.208,-1.248 -0.312,-1.924 -0.052,0.676 -0.312,1.924 -0.208,1.196 -0.468,2.548 -0.26,1.3 -0.52,2.496 -0.26,1.144 -0.416,1.768 l -4.992,19.448 h -8.944 l -9.464,-37.128 h 7.748 l 4.732,20.28 q 0.312,1.196 0.676,3.016 0.364,1.82 0.676,3.64 0.312,1.82 0.468,3.068 0.156,-1.3 0.468,-3.068 0.312,-1.82 0.624,-3.484 0.364,-1.716 0.624,-2.652 l 5.408,-20.8 h 7.436 l 5.408,20.8 q 0.26,0.884 0.572,2.6 0.364,1.716 0.676,3.536 0.312,1.82 0.468,3.068 0.156,-1.3 0.468,-3.068 0.312,-1.82 0.676,-3.64 0.416,-1.82 0.676,-3.016 l 4.732,-20.28 z M 643.78,547 h -21.372 v -37.128 h 21.372 v 6.448 h -13.52 v 8.164 h 12.584 v 6.448 H 630.26 v 9.568 h 13.52 z m 33.29197,-37.128 q 7.436,0 11.232,2.08 3.796,2.08 3.796,7.332 0,3.172 -1.508,5.356 -1.456,2.184 -4.212,2.652 v 0.26 q 1.872,0.364 3.38,1.3 1.508,0.936 2.392,2.704 0.884,1.768 0.884,4.68 0,5.044 -3.64,7.904 -3.64,2.86 -9.984,2.86 h -13.884 v -37.128 z m 0.884,14.716 q 3.432,0 4.732,-1.092 1.352,-1.092 1.352,-3.172 0,-2.132 -1.56,-3.068 -1.56,-0.936 -4.94,-0.936 h -4.16 v 8.268 z m -4.576,6.24 v 9.672 h 5.148 q 3.536,0 4.94,-1.352 1.404,-1.404 1.404,-3.692 0,-2.08 -1.456,-3.328 -1.404,-1.3 -5.148,-1.3 z m 99.39605,-2.756 q 0,9.412 -5.356,14.196 -5.304,4.732 -14.924,4.732 h -10.504 v -37.128 h 11.648 q 5.824,0 10.088,2.08 4.316,2.08 6.656,6.136 2.392,4.004 2.392,9.984 z m -8.164,0.208 q 0,-6.188 -2.704,-9.048 -2.704,-2.912 -7.852,-2.912 h -4.212 v 24.18 h 3.38 q 11.388,0 11.388,-12.22 z m 51.232,18.72 h -21.372 v -37.128 h 21.372 v 6.448 h -13.52 v 8.164 h 12.584 v 6.448 h -12.584 v 9.568 h 13.52 z m 43.63997,-10.296 q 0,4.94 -3.588,7.904 -3.536,2.912 -10.088,2.912 -5.876,0 -10.504,-2.236 v -7.332 q 2.652,1.144 5.46,2.132 2.86,0.936 5.668,0.936 2.912,0 4.108,-1.092 1.248,-1.144 1.248,-2.86 0,-1.404 -0.988,-2.392 -0.936,-0.988 -2.548,-1.82 -1.612,-0.884 -3.692,-1.872 -1.3,-0.624 -2.808,-1.456 -1.508,-0.884 -2.912,-2.132 -1.352,-1.3 -2.236,-3.12 -0.884,-1.82 -0.884,-4.368 0,-4.992 3.38,-7.748 3.38,-2.808 9.204,-2.808 2.912,0 5.512,0.676 2.652,0.676 5.512,1.924 l -2.548,6.136 q -2.548,-1.04 -4.576,-1.612 -2.028,-0.572 -4.16,-0.572 -2.236,0 -3.432,1.04 -1.196,1.04 -1.196,2.704 0,1.976 1.768,3.12 1.768,1.144 5.252,2.808 2.86,1.352 4.836,2.808 2.028,1.456 3.12,3.432 1.092,1.976 1.092,4.888 z M 894.128,547 h -16.9 v -4.472 l 4.524,-2.08 v -24.024 l -4.524,-2.08 v -4.472 h 16.9 v 4.472 l -4.524,2.08 v 24.024 l 4.524,2.08 z m 34.43603,-20.852 h 14.716 v 19.24 q -2.912,0.988 -6.084,1.56 -3.12,0.572 -7.124,0.572 -8.32,0 -12.792,-4.888 -4.472,-4.888 -4.472,-14.248 0,-5.824 2.236,-10.088 2.288,-4.264 6.604,-6.604 4.316,-2.34 10.556,-2.34 2.964,0 5.824,0.624 2.86,0.624 5.2,1.664 l -2.6,6.292 q -1.716,-0.884 -3.9,-1.456 -2.184,-0.572 -4.576,-0.572 -3.432,0 -5.98,1.56 -2.496,1.56 -3.9,4.42 -1.352,2.808 -1.352,6.656 0,3.64 0.988,6.448 0.988,2.808 3.12,4.42 2.132,1.56 5.564,1.56 1.664,0 2.808,-0.156 1.196,-0.156 2.184,-0.364 V 532.7 h -7.02 z M 999.03607,547 h -9.984 l -16.172,-28.08 h -0.208 q 0.104,2.652 0.208,5.304 0.156,2.652 0.26,5.304 V 547 h -7.02 v -37.128 h 9.932 l 16.12,27.82 h 0.156 q -0.052,-2.6 -0.156,-5.148 -0.104,-2.548 -0.208,-5.096 v -17.576 h 7.072 z m 62.32003,-37.648 q 3.016,0 5.356,0.936 2.34,0.936 3.692,2.756 1.352,1.768 1.352,4.368 0,3.588 -2.132,6.032 -2.132,2.444 -5.304,4.264 l 7.228,7.02 q 1.04,-1.768 1.82,-3.692 0.78,-1.976 1.3,-3.952 h 8.06 q -0.78,2.912 -2.288,6.24 -1.508,3.328 -3.848,6.24 l 7.644,7.436 h -9.568 l -2.912,-2.86 q -2.236,1.56 -4.992,2.496 -2.756,0.884 -5.98,0.884 -6.344,0 -9.932,-2.912 -3.536,-2.912 -3.536,-7.644 0,-3.952 1.82,-6.292 1.82,-2.392 4.992,-4.212 -2.028,-2.34 -2.86,-4.316 -0.78,-1.976 -0.78,-4.212 0,-2.652 1.352,-4.576 1.404,-1.924 3.848,-2.964 2.496,-1.04 5.668,-1.04 z m -0.052,5.98 q -1.3,0 -2.496,0.676 -1.144,0.624 -1.144,2.444 0,1.3 0.624,2.496 0.676,1.196 1.768,2.444 2.184,-1.196 3.328,-2.392 1.196,-1.196 1.196,-2.756 0,-1.56 -1.04,-2.236 -1.04,-0.676 -2.236,-0.676 z m -2.652,15.756 q -1.456,1.092 -2.34,2.34 -0.832,1.196 -0.832,2.808 0,2.236 1.664,3.536 1.664,1.248 4.16,1.248 1.664,0 3.12,-0.416 1.456,-0.416 2.652,-1.144 z m 71.784,15.912 v -37.128 h 7.852 V 540.5 h 15.08 v 6.5 z m 76.0359,-18.616 q 0,5.772 -1.924,10.088 -1.872,4.264 -5.772,6.656 -3.9,2.392 -9.984,2.392 -6.032,0 -9.984,-2.392 -3.9,-2.392 -5.824,-6.708 -1.872,-4.316 -1.872,-10.088 0,-5.772 1.872,-10.036 1.924,-4.264 5.824,-6.604 3.952,-2.392 10.036,-2.392 6.032,0 9.932,2.392 3.9,2.34 5.772,6.656 1.924,4.264 1.924,10.036 z m -27.092,0 q 0,5.824 2.236,9.204 2.236,3.328 7.176,3.328 5.044,0 7.228,-3.328 2.184,-3.38 2.184,-9.204 0,-5.876 -2.184,-9.204 -2.184,-3.328 -7.176,-3.328 -4.992,0 -7.228,3.328 -2.236,3.328 -2.236,9.204 z m 64.5441,-12.48 q -4.524,0 -6.916,3.38 -2.392,3.38 -2.392,9.256 0,5.928 2.184,9.204 2.236,3.224 7.124,3.224 2.288,0 4.524,-0.52 2.288,-0.52 4.94,-1.456 v 6.604 q -2.444,0.988 -4.836,1.456 -2.392,0.468 -5.356,0.468 -5.72,0 -9.464,-2.34 -3.692,-2.392 -5.46,-6.656 -1.768,-4.316 -1.768,-10.036 0,-5.616 2.028,-9.932 2.028,-4.316 5.876,-6.76 3.9,-2.444 9.516,-2.444 2.756,0 5.512,0.728 2.808,0.676 5.356,1.872 l -2.548,6.396 q -2.08,-0.988 -4.212,-1.716 -2.08,-0.728 -4.108,-0.728 z m 54.0919,31.096 -2.704,-8.84 h -13.52 l -2.704,8.84 h -8.476 l 13.104,-37.284 h 9.62 L 1306.492,547 Z m -7.28,-24.076 q -0.26,-0.884 -0.676,-2.236 -0.416,-1.352 -0.832,-2.756 -0.416,-1.404 -0.676,-2.444 -0.26,1.04 -0.728,2.6 -0.416,1.508 -0.832,2.912 -0.364,1.352 -0.572,1.924 l -2.652,8.632 h 9.672 z M 1325.172,547 v -37.128 h 7.852 V 540.5 h 15.08 v 6.5 z m 92.7921,-10.296 q 0,4.94 -3.588,7.904 -3.536,2.912 -10.088,2.912 -5.876,0 -10.504,-2.236 v -7.332 q 2.652,1.144 5.46,2.132 2.86,0.936 5.668,0.936 2.912,0 4.108,-1.092 1.248,-1.144 1.248,-2.86 0,-1.404 -0.988,-2.392 -0.936,-0.988 -2.548,-1.82 -1.612,-0.884 -3.692,-1.872 -1.3,-0.624 -2.808,-1.456 -1.508,-0.884 -2.912,-2.132 -1.352,-1.3 -2.236,-3.12 -0.884,-1.82 -0.884,-4.368 0,-4.992 3.38,-7.748 3.38,-2.808 9.204,-2.808 2.912,0 5.512,0.676 2.652,0.676 5.512,1.924 l -2.548,6.136 q -2.548,-1.04 -4.576,-1.612 -2.028,-0.572 -4.16,-0.572 -2.236,0 -3.432,1.04 -1.196,1.04 -1.196,2.704 0,1.976 1.768,3.12 1.768,1.144 5.252,2.808 2.86,1.352 4.836,2.808 2.028,1.456 3.12,3.432 1.092,1.976 1.092,4.888 z m 42.132,10.296 h -21.372 v -37.128 h 21.372 v 6.448 h -13.52 v 8.164 h 12.584 v 6.448 h -12.584 v 9.568 h 13.52 z m 55.444,-18.616 q 0,5.772 -1.924,10.088 -1.872,4.264 -5.772,6.656 -3.9,2.392 -9.984,2.392 -6.032,0 -9.984,-2.392 -3.9,-2.392 -5.824,-6.708 -1.872,-4.316 -1.872,-10.088 0,-5.772 1.872,-10.036 1.924,-4.264 5.824,-6.604 3.952,-2.392 10.036,-2.392 6.032,0 9.932,2.392 3.9,2.34 5.772,6.656 1.924,4.264 1.924,10.036 z m -27.092,0 q 0,5.824 2.236,9.204 2.236,3.328 7.176,3.328 5.044,0 7.228,-3.328 2.184,-3.38 2.184,-9.204 0,-5.876 -2.184,-9.204 -2.184,-3.328 -7.176,-3.328 -4.992,0 -7.228,3.328 -2.236,3.328 -2.236,9.204 z"
     id="text5"
     style="font-weight:700;font-size:52px;font-family:'Noto Sans', Arimo, Arial, sans-serif;letter-spacing:14px;text-anchor:middle;fill:#061a3d"
     aria-label="WEB DESIGN &amp; LOCAL SEO" />
</svg>
